<svg xmlns="http://www.w3.org/2000/svg" xmlns:xlink="http://www.w3.org/1999/xlink" width="385" zoomAndPan="magnify" viewBox="0 0 288.75 57.749997" height="77" preserveAspectRatio="xMidYMid meet" version="1.0"><defs><g/><clipPath id="deaedadcd8"><path d="M 240 10 L 286 10 L 286 52.824219 L 240 52.824219 Z M 240 10 " clip-rule="nonzero"/></clipPath></defs><g fill="#ffffff" fill-opacity="1"><g transform="translate(12.48296, 40.12177)"><g><path d="M 2.25 -22.578125 L 8.640625 -22.578125 L 8.640625 0 L 2.25 0 Z M 5.453125 -24.34375 C 4.503906 -24.34375 3.734375 -24.644531 3.140625 -25.25 C 2.546875 -25.851562 2.25 -26.617188 2.25 -27.546875 C 2.25 -28.460938 2.550781 -29.21875 3.15625 -29.8125 C 3.757812 -30.40625 4.523438 -30.703125 5.453125 -30.703125 C 6.378906 -30.703125 7.140625 -30.40625 7.734375 -29.8125 C 8.335938 -29.21875 8.640625 -28.460938 8.640625 -27.546875 C 8.640625 -26.617188 8.335938 -25.851562 7.734375 -25.25 C 7.140625 -24.644531 6.378906 -24.34375 5.453125 -24.34375 Z M 5.453125 -24.34375 "/></g></g></g><g fill="#ffffff" fill-opacity="1"><g transform="translate(23.416328, 40.12177)"><g><path d="M 2.25 -22.578125 L 8.640625 -22.578125 L 8.640625 -5.0625 L 19.421875 -5.0625 L 19.421875 0 L 2.25 0 Z M 2.25 -22.578125 "/></g></g></g><g fill="#ffffff" fill-opacity="1"><g transform="translate(43.089944, 40.12177)"><g><path d="M 17.375 -4.390625 L 7.84375 -4.390625 L 6.0625 0 L -0.453125 0 L 9.515625 -22.578125 L 15.796875 -22.578125 L 25.796875 0 L 19.15625 0 Z M 15.515625 -9.09375 L 12.609375 -16.3125 L 9.703125 -9.09375 Z M 15.515625 -9.09375 "/></g></g></g><g fill="#ffffff" fill-opacity="1"><g transform="translate(68.439882, 40.12177)"><g><path d="M 13.515625 0.453125 C 11.148438 0.453125 9.023438 -0.046875 7.140625 -1.046875 C 5.265625 -2.046875 3.785156 -3.4375 2.703125 -5.21875 C 1.628906 -7.007812 1.09375 -9.03125 1.09375 -11.28125 C 1.09375 -13.539062 1.628906 -15.5625 2.703125 -17.34375 C 3.785156 -19.132812 5.265625 -20.53125 7.140625 -21.53125 C 9.023438 -22.53125 11.148438 -23.03125 13.515625 -23.03125 C 15.578125 -23.03125 17.4375 -22.660156 19.09375 -21.921875 C 20.75 -21.191406 22.125 -20.140625 23.21875 -18.765625 L 19.15625 -15.09375 C 17.695312 -16.851562 15.921875 -17.734375 13.828125 -17.734375 C 12.609375 -17.734375 11.519531 -17.460938 10.5625 -16.921875 C 9.601562 -16.390625 8.859375 -15.632812 8.328125 -14.65625 C 7.804688 -13.675781 7.546875 -12.550781 7.546875 -11.28125 C 7.546875 -10.019531 7.804688 -8.898438 8.328125 -7.921875 C 8.859375 -6.941406 9.601562 -6.179688 10.5625 -5.640625 C 11.519531 -5.109375 12.609375 -4.84375 13.828125 -4.84375 C 15.921875 -4.84375 17.695312 -5.722656 19.15625 -7.484375 L 23.21875 -3.8125 C 22.125 -2.425781 20.75 -1.367188 19.09375 -0.640625 C 17.4375 0.0859375 15.578125 0.453125 13.515625 0.453125 Z M 13.515625 0.453125 "/></g></g></g><g fill="#ffffff" fill-opacity="1"><g transform="translate(92.241732, 40.12177)"><g><path d="M 2.25 -22.578125 L 8.640625 -22.578125 L 8.640625 0 L 2.25 0 Z M 2.25 -22.578125 "/></g></g></g><g fill="#ffffff" fill-opacity="1"><g transform="translate(103.1751, 40.12177)"><g><path d="M 22.640625 0 L 22.578125 -11.96875 L 16.765625 -2.21875 L 13.9375 -2.21875 L 8.15625 -11.640625 L 8.15625 0 L 2.25 0 L 2.25 -22.578125 L 7.515625 -22.578125 L 15.453125 -9.546875 L 23.1875 -22.578125 L 28.4375 -22.578125 L 28.515625 0 Z M 22.640625 0 "/></g></g></g><g fill="#ffffff" fill-opacity="1"><g transform="translate(133.943345, 40.12177)"><g><path d="M 2.25 -22.578125 L 8.640625 -22.578125 L 8.640625 0 L 2.25 0 Z M 2.25 -22.578125 "/></g></g></g><g fill="#ffffff" fill-opacity="1"><g transform="translate(144.876713, 40.12177)"><g/></g></g><g fill="#ffffff" fill-opacity="1"><g transform="translate(154.261993, 40.12177)"><g><path d="M 19.609375 -11.765625 C 20.898438 -11.316406 21.910156 -10.613281 22.640625 -9.65625 C 23.367188 -8.695312 23.734375 -7.539062 23.734375 -6.1875 C 23.734375 -4.207031 22.9375 -2.679688 21.34375 -1.609375 C 19.757812 -0.535156 17.460938 0 14.453125 0 L 2.25 0 L 2.25 -22.578125 L 13.796875 -22.578125 C 16.679688 -22.578125 18.875 -22.039062 20.375 -20.96875 C 21.882812 -19.90625 22.640625 -18.472656 22.640625 -16.671875 C 22.640625 -15.597656 22.375 -14.632812 21.84375 -13.78125 C 21.320312 -12.9375 20.578125 -12.265625 19.609375 -11.765625 Z M 8.578125 -17.96875 L 8.578125 -13.609375 L 12.96875 -13.609375 C 15.113281 -13.609375 16.1875 -14.335938 16.1875 -15.796875 C 16.1875 -17.242188 15.113281 -17.96875 12.96875 -17.96875 Z M 13.9375 -4.609375 C 16.164062 -4.609375 17.28125 -5.375 17.28125 -6.90625 C 17.28125 -8.425781 16.164062 -9.1875 13.9375 -9.1875 L 8.578125 -9.1875 L 8.578125 -4.609375 Z M 13.9375 -4.609375 "/></g></g></g><g fill="#ffffff" fill-opacity="1"><g transform="translate(179.063643, 40.12177)"><g><path d="M 12.671875 0.453125 C 9.316406 0.453125 6.707031 -0.457031 4.84375 -2.28125 C 2.988281 -4.113281 2.0625 -6.707031 2.0625 -10.0625 L 2.0625 -22.578125 L 8.453125 -22.578125 L 8.453125 -10.25 C 8.453125 -6.644531 9.878906 -4.84375 12.734375 -4.84375 C 15.578125 -4.84375 17 -6.644531 17 -10.25 L 17 -22.578125 L 23.28125 -22.578125 L 23.28125 -10.0625 C 23.28125 -6.707031 22.347656 -4.113281 20.484375 -2.28125 C 18.628906 -0.457031 16.023438 0.453125 12.671875 0.453125 Z M 12.671875 0.453125 "/></g></g></g><g fill="#ffffff" fill-opacity="1"><g transform="translate(204.413592, 40.12177)"><g><path d="M 2.25 -22.578125 L 8.640625 -22.578125 L 8.640625 -5.0625 L 19.421875 -5.0625 L 19.421875 0 L 2.25 0 Z M 2.25 -22.578125 "/></g></g></g><g clip-path="url(#deaedadcd8)"><path fill="#ff5757" d="M 281.566406 13.445312 C 271.019531 4.289062 262.582031 20.046875 262.582031 20.046875 C 262.582031 20.046875 254.144531 4.289062 243.597656 13.445312 C 243.597656 13.445312 237.621094 19.355469 241.3125 27.339844 C 245.003906 35.328125 262.582031 53.054688 262.582031 53.054688 C 262.582031 53.054688 280.160156 35.328125 283.851562 27.339844 C 287.542969 19.355469 281.566406 13.445312 281.566406 13.445312 Z M 281.566406 13.445312 " fill-opacity="1" fill-rule="nonzero"/></g><path fill="#ffffff" d="M 256.410156 42.226562 C 256.15625 42.226562 255.914062 42.109375 255.761719 41.898438 L 252.09375 36.902344 L 245.546875 36.902344 C 245.105469 36.902344 244.746094 36.542969 244.746094 36.101562 C 244.746094 35.660156 245.105469 35.300781 245.546875 35.300781 L 252.496094 35.300781 C 252.753906 35.300781 252.992188 35.421875 253.144531 35.625 L 256.085938 39.632812 L 259.523438 27.601562 C 259.617188 27.265625 259.914062 27.03125 260.261719 27.019531 C 260.605469 27.007812 260.925781 27.214844 261.046875 27.539062 L 264.792969 37.515625 L 266.949219 32.183594 C 267.054688 31.917969 267.292969 31.730469 267.574219 31.691406 C 267.855469 31.648438 268.136719 31.757812 268.316406 31.976562 L 272.757812 37.429688 L 278.902344 37.429688 C 279.34375 37.429688 279.703125 37.789062 279.703125 38.234375 C 279.703125 38.675781 279.34375 39.035156 278.902344 39.035156 L 272.378906 39.035156 C 272.136719 39.035156 271.910156 38.925781 271.757812 38.742188 L 267.929688 34.042969 L 265.511719 40.023438 C 265.386719 40.332031 265.089844 40.535156 264.757812 40.527344 C 264.425781 40.523438 264.132812 40.316406 264.015625 40.007812 L 260.398438 30.382812 L 257.179688 41.648438 C 257.09375 41.941406 256.851562 42.164062 256.546875 42.21875 C 256.5 42.226562 256.453125 42.230469 256.40625 42.230469 Z M 256.410156 42.226562 " fill-opacity="1" fill-rule="nonzero"/></svg>