<svg xmlns="http://www.w3.org/2000/svg" xmlns:xlink="http://www.w3.org/1999/xlink" width="500" zoomAndPan="magnify" viewBox="0 0 375 374.999991" height="500" preserveAspectRatio="xMidYMid meet" version="1.0"><defs><clipPath id="6901525d23"><path d="M 157 103.394531 L 247 103.394531 L 247 215 L 157 215 Z M 157 103.394531 " clip-rule="nonzero"/></clipPath><clipPath id="2fe28d6aec"><path d="M 126 123 L 187 123 L 187 216.644531 L 126 216.644531 Z M 126 123 " clip-rule="nonzero"/></clipPath><clipPath id="2736924499"><path d="M 132 103.394531 L 229 103.394531 L 229 155 L 132 155 Z M 132 103.394531 " clip-rule="nonzero"/></clipPath></defs><path fill="#ffa500" d="M 210.976562 152.523438 C 216.871094 152.523438 221.65625 147.738281 221.65625 141.839844 C 221.65625 135.9375 216.871094 131.152344 210.976562 131.152344 C 205.070312 131.152344 200.292969 135.9375 200.292969 141.839844 C 200.292969 147.738281 205.070312 152.523438 210.976562 152.523438 Z M 210.976562 152.523438 " fill-opacity="1" fill-rule="nonzero"/><g clip-path="url(#6901525d23)"><path fill="#ffa500" d="M 211.714844 103.734375 C 209.855469 103.667969 207.980469 103.730469 206.117188 103.933594 C 231.875 109.738281 231.445312 135.992188 227.863281 145.902344 C 227.84375 145.957031 227.820312 146.019531 227.800781 146.078125 C 226.238281 150.335938 223.671875 154.941406 219.664062 157.359375 C 214.265625 160.597656 207.195312 158.773438 202.386719 155.3125 C 189.917969 146.355469 185.898438 127.238281 168.269531 125.320312 C 161.984375 124.644531 157.328125 127.453125 157.328125 127.453125 C 157.328125 127.453125 174.183594 133.6875 186.429688 160.023438 C 195.507812 179.554688 193.605469 201.644531 191.308594 214.257812 C 203.535156 207.746094 215.882812 200.65625 225.558594 190.703125 C 235.5625 180.414062 243.152344 167.226562 245.566406 152.980469 C 249.402344 130.375 236.828125 104.65625 211.714844 103.734375 Z M 211.714844 103.734375 " fill-opacity="1" fill-rule="nonzero"/></g><path fill="#0097b2" d="M 167.8125 189.875 C 163.898438 187.960938 160.722656 185.75 156.210938 181.527344 C 161.796875 191.765625 173.375 199.441406 186.429688 203.476562 C 186.429688 199.558594 185.535156 197.644531 181.910156 195.574219 C 177.507812 193.054688 172.355469 192.105469 167.8125 189.875 Z M 167.8125 189.875 " fill-opacity="1" fill-rule="nonzero"/><path fill="#0097b2" d="M 158.757812 178.4375 C 164.3125 185.324219 172.9375 188.707031 182.476562 191.160156 C 182.476562 185.867188 176.964844 184.058594 173.566406 183.652344 C 166.066406 182.75 158.757812 178.4375 158.757812 178.4375 Z M 158.757812 178.4375 " fill-opacity="1" fill-rule="nonzero"/><g clip-path="url(#2fe28d6aec)"><path fill="#0097b2" d="M 167.261719 197.46875 C 160.082031 192.492188 155.417969 187.949219 153.152344 179.511719 C 152.417969 176.785156 152.183594 173.472656 154.234375 171.523438 C 155.96875 169.867188 158.714844 169.878906 161.050781 170.441406 C 163.386719 171.003906 165.652344 172.015625 168.054688 172.035156 C 170.453125 172.046875 174.019531 170.984375 174.300781 168.597656 C 168.789062 162.558594 161.273438 158.375 153.234375 156.875 C 151.257812 156.503906 149.335938 156.152344 147.496094 155.640625 C 144.621094 154.851562 141.953125 153.671875 139.597656 151.4375 C 136.363281 148.367188 134.324219 144.273438 133.058594 140.050781 C 131.441406 134.660156 130.996094 128.84375 131.683594 123.203125 C 127.148438 132.078125 125.574219 142.839844 127.292969 152.980469 C 129.707031 167.226562 137.296875 180.414062 147.300781 190.703125 C 158.265625 201.984375 172.671875 209.585938 186.429688 216.847656 C 188.484375 205.578125 178.976562 205.578125 167.261719 197.46875 Z M 167.261719 197.46875 " fill-opacity="1" fill-rule="nonzero"/></g><g clip-path="url(#2736924499)"><path fill="#0097b2" d="M 224.578125 118.445312 C 220.808594 111.566406 214.503906 107.089844 205.84375 105.136719 L 202.804688 104.453125 C 196.507812 105.730469 190.609375 108.695312 186.429688 113.730469 C 180.304688 106.351562 170.480469 103.394531 161.144531 103.734375 C 148.519531 104.195312 139.070312 110.921875 133.273438 120.371094 L 132.910156 123.351562 C 132.234375 128.890625 132.695312 134.542969 134.242188 139.695312 C 135.621094 144.292969 137.707031 147.941406 140.449219 150.539062 C 142.207031 152.207031 144.257812 153.355469 147.003906 154.207031 C 146.261719 151.984375 145.644531 149.726562 145.238281 147.417969 C 144.050781 140.777344 144.648438 133.597656 148.199219 127.859375 C 152.121094 121.519531 159.613281 117.558594 167.066406 117.894531 C 174.511719 118.226562 183.089844 122.722656 186.429688 129.386719 C 189.769531 122.722656 198.347656 118.226562 205.792969 117.894531 C 213.246094 117.558594 220.738281 121.519531 224.660156 127.859375 C 226.769531 131.269531 227.832031 135.183594 228.105469 139.195312 C 228.832031 133.160156 228.300781 125.246094 224.578125 118.445312 Z M 224.578125 118.445312 " fill-opacity="1" fill-rule="nonzero"/></g></svg>